mtllib ./ranged object.All files.mtl
g pb-Cube-205202(Clone)
v -1.397322 0 0.8745662
v -1.397322 0 0.3745662
v -1.397322 0.5 0.8745662
v -1.397322 0.5 0.3745662
v 0 0 -0.5
v 0 0 0
v 0 0.5 -0.5
v 0 0.5 0
v 0 0 -0.5
v 0 0.5 -0.5
v -0.6986611 0.5 -0.3284643
v -0.6986611 0 -0.3284643
v -1.397322 0 0.3745662
v -1.397322 0.5 0.3745662
v -0.6986611 0.5 -0.3284643
v -0.6986611 0 -0.3284643
v -1.397322 0.5 0.8745662
v -1.397322 0.5 0.3745662
v -0.6986611 0.5 -0.3284643
v -0.6986611 0.5 0.1715357
v 0 0.5 0
v 0 0.5 -0.5
v -0.6986611 0.5 -0.3284643
v -0.6986611 0.5 0.1715357
v 0 0 -0.5
v 0 0 0
v -0.6986611 0 -0.3284643
v -0.6986611 0 0.1715357
v -1.397322 0 0.3745662
v -1.397322 0 0.8745662
v -0.6986611 0 -0.3284643
v -0.6986611 0 0.1715357
v 0 0 0
v 0 0.5 0
v -0.6986611 0 0.1715357
v -0.6986611 0.5 0.1715357
v -1.397322 0 0.8745662
v -1.397322 0.5 0.8745662
v -0.6986611 0 0.1715357
v -0.6986611 0.5 0.1715357
v 0.659 0.02699995 -1.231
v 0.159 0.02699995 -1.231
v 0.409 0.527 -1.231
v 0.159 0.02699995 -1.231
v 0.159 0.02699995 2.769
v 0.409 0.527 -1.231
v 0.409 0.527 2.769
v 0.159 0.02699995 2.769
v 0.659 0.02699995 2.769
v 0.409 0.527 2.769
v 0.659 0.02699995 2.769
v 0.659 0.02699995 -1.231
v 0.409 0.527 2.769
v 0.409 0.527 -1.231
v 0.659 0.02699995 -1.231
v 0.159 0.02699995 -1.231
v 0.659 0.02699995 2.769
v 0.159 0.02699995 2.769
v 1.131 0.2149999 -0.5
v 0.8029945 0.2149944 -0.6893742
v 0.8029945 0.2149944 -0.6893742
v 0.8029944 0.2150025 -0.3106259
v 0.8029944 0.2150025 -0.3106259
v 1.131 0.2149999 -0.5
v -5.692244E-05 0.8680091 -0.5000142
v 0.1639474 0.5839446 -0.6893822
v 0.1639474 0.5839446 -0.6893822
v 0.1639472 0.5839527 -0.310634
v 0.1639472 0.5839527 -0.310634
v -5.692244E-05 0.8680091 -0.5000142
v -5.692244E-05 0.8680091 -0.5000142
v 0.1639474 0.5839446 -0.6893822
v 0.1639474 0.5839446 -0.6893822
v 0.1639472 0.5839527 -0.310634
v 0.1639472 0.5839527 -0.310634
v -5.692244E-05 0.8680091 -0.5000142
v -5.084276E-05 -0.4380196 -0.4999864
v 0.1639507 -0.1539617 -0.6893666
v 0.1639507 -0.1539617 -0.6893666
v 0.1639505 -0.1539537 -0.3106183
v 0.1639505 -0.1539537 -0.3106183
v -5.084276E-05 -0.4380196 -0.4999864
v -5.084276E-05 -0.4380196 -0.4999864
v 0.1639507 -0.1539617 -0.6893666
v 0.1639507 -0.1539617 -0.6893666
v 0.1639505 -0.1539537 -0.3106183
v 0.1639505 -0.1539537 -0.3106183
v -5.084276E-05 -0.4380196 -0.4999864
v 1.131 0.2150002 -0.5
v 0.8029945 0.2149944 -0.6893742
v 0.8029945 0.2149944 -0.6893742
v 0.8029944 0.2150025 -0.3106259
v 0.8029944 0.2150025 -0.3106259
v 1.131 0.2150002 -0.5
v -0.792 0.2149999 0.344
v -0.27435 0.2150064 0.04513466
v -0.27435 0.2150064 0.04513466
v -0.27435 0.2149935 0.6428654
v -0.27435 0.2149935 0.6428654
v -0.792 0.2149999 0.3439999
v 0.9930002 -0.8155704 0.3439776
v 0.7341751 -0.3672658 0.04512191
v 0.7341751 -0.3672658 0.04512191
v 0.7341751 -0.3672788 0.6428527
v 0.7341751 -0.3672788 0.6428527
v 0.9930002 -0.8155704 0.3439775
v 0.9930002 -0.8155704 0.3439776
v 0.7341751 -0.3672658 0.04512191
v 0.7341751 -0.3672658 0.04512191
v 0.7341751 -0.3672788 0.6428527
v 0.7341751 -0.3672788 0.6428527
v 0.9930002 -0.8155704 0.3439775
v 0.9930001 1.24557 0.3440224
v 0.7341751 0.7972789 0.0451473
v 0.7341751 0.7972789 0.0451473
v 0.7341751 0.7972658 0.6428781
v 0.7341751 0.7972658 0.6428781
v 0.9930001 1.24557 0.3440223
v 0.9930001 1.24557 0.3440224
v 0.7341751 0.7972789 0.0451473
v 0.7341751 0.7972789 0.0451473
v 0.7341751 0.7972658 0.6428781
v 0.7341751 0.7972658 0.6428781
v 0.9930001 1.24557 0.3440223
v -0.792 0.2149997 0.344
v -0.27435 0.2150064 0.04513466
v -0.27435 0.2150064 0.04513466
v -0.27435 0.2149932 0.6428654
v -0.27435 0.2149932 0.6428654
v -0.792 0.2149997 0.3439999
v 0.7336779 0 0
v 0.7336779 0 -0.5
v 0.7336779 0.5 0
v 0.7336779 0.5 -0.5
v 2.131 0 0.3745662
v 2.131 0 0.8745662
v 2.131 0.5 0.3745662
v 2.131 0.5 0.8745662
v 2.131 0 0.3745662
v 2.131 0.5 0.3745662
v 1.432339 0.5 -0.3226528
v 1.432339 0 -0.3226528
v 0.7336779 0 -0.5
v 0.7336779 0.5 -0.5
v 1.432339 0.5 -0.3226528
v 1.432339 0 -0.3226528
v 0.7336779 0.5 0
v 0.7336779 0.5 -0.5
v 1.432339 0.5 -0.3226528
v 1.432339 0.5 0.1773472
v 2.131 0.5 0.8745662
v 2.131 0.5 0.3745662
v 1.432339 0.5 -0.3226528
v 1.432339 0.5 0.1773472
v 2.131 0 0.3745662
v 2.131 0 0.8745662
v 1.432339 0 -0.3226528
v 1.432339 0 0.1773472
v 0.7336779 0 -0.5
v 0.7336779 0 0
v 1.432339 0 -0.3226528
v 1.432339 0 0.1773472
v 2.131 0 0.8745662
v 2.131 0.5 0.8745662
v 1.432339 0 0.1773472
v 1.432339 0.5 0.1773472
v 0.7336779 0 0
v 0.7336779 0.5 0
v 1.432339 0 0.1773472
v 1.432339 0.5 0.1773472

vn -1 0 0
vn -1 0 0
vn -1 0 0
vn -1 0 0
vn 1 0 0
vn 1 0 0
vn 1 0 0
vn 1 0 0
vn -0.2384392 0 -0.9711574
vn -0.2384392 0 -0.9711574
vn -0.2384392 0 -0.9711574
vn -0.2384392 0 -0.9711574
vn -0.7093075 0 -0.7048991
vn -0.7093075 0 -0.7048991
vn -0.7093075 0 -0.7048991
vn -0.7093075 0 -0.7048991
vn 0 1 0
vn 0 1 0
vn 0 1 0
vn 0 1 0
vn 0 1 0
vn 0 1 0
vn 0 1 0
vn 0 1 0
vn 0 -1 0
vn 0 -1 0
vn 0 -1 0
vn 0 -1 0
vn 0 -1 0
vn 0 -1 0
vn 0 -1 0
vn 0 -1 0
vn 0.2384392 0 0.9711574
vn 0.2384392 0 0.9711574
vn 0.2384392 0 0.9711574
vn 0.2384392 0 0.9711574
vn 0.7093075 0 0.7048991
vn 0.7093075 0 0.7048991
vn 0.7093075 0 0.7048991
vn 0.7093075 0 0.7048991
vn 0 0 -1
vn 0 0 -1
vn 0 0 -1
vn -0.8944272 0.4472136 0
vn -0.8944272 0.4472136 0
vn -0.8944272 0.4472136 0
vn -0.8944272 0.4472136 0
vn 0 0 1
vn 0 0 1
vn 0 0 1
vn 0.8944272 0.4472136 0
vn 0.8944272 0.4472136 0
vn 0.8944272 0.4472136 0
vn 0.8944272 0.4472136 0
vn 0 -1 0
vn 0 -1 0
vn 0 -1 0
vn 0 -1 0
vn 0.3779617 0.6546416 -0.6546673
vn 0.3779617 0.6546416 -0.6546674
vn -0.4999961 -0.8660278 1.837795E-05
vn -0.499996 -0.8660277 1.829927E-05
vn 0.3779614 0.6546698 0.6546394
vn 0.3779613 0.6546694 0.6546397
vn 0.3779617 0.6546416 -0.6546674
vn 0.3779616 0.6546415 -0.6546674
vn -0.499996 -0.8660277 1.829927E-05
vn -0.4999959 -0.8660277 1.822058E-05
vn 0.3779613 0.6546694 0.6546397
vn 0.3779613 0.6546693 0.6546399
vn -0.7559284 -1.744167E-05 -0.6546543
vn -0.7559286 -1.738344E-05 -0.654654
vn 1 4.523434E-06 6.293942E-07
vn 1 4.523434E-06 6.293948E-07
vn -0.7559289 1.054091E-05 0.6546537
vn -0.7559292 1.045517E-05 0.6546535
vn -0.7559286 -1.738344E-05 -0.654654
vn -0.7559289 -1.728038E-05 -0.6546538
vn 1 4.523434E-06 6.293948E-07
vn 1 4.523433E-06 6.293955E-07
vn -0.7559292 1.045517E-05 0.6546535
vn -0.7559294 1.040672E-05 0.6546533
vn 0.3779679 -0.6546659 -0.6546395
vn 0.3779679 -0.6546659 -0.6546394
vn -0.5000041 0.8660231 -1.857739E-05
vn -0.5000041 0.8660231 -1.8635E-05
vn 0.3779673 -0.6546379 0.6546677
vn 0.3779675 -0.6546381 0.6546676
vn 0.3779679 -0.6546659 -0.6546394
vn 0.3779679 -0.6546661 -0.6546393
vn -0.5000041 0.8660231 -1.8635E-05
vn -0.5000041 0.8660231 -1.86926E-05
vn 0.3779675 -0.6546381 0.6546676
vn 0.3779676 -0.6546382 0.6546675
vn -0.3779645 -0.6546395 -0.6546678
vn -0.3779645 -0.6546395 -0.6546678
vn 0.5 0.8660254 1.865344E-05
vn 0.5 0.8660254 1.87398E-05
vn -0.3779645 -0.654668 0.6546394
vn -0.3779645 -0.654668 0.6546393
vn -0.3779645 -0.6546395 -0.6546678
vn -0.3779645 -0.6546395 -0.6546678
vn 0.5 0.8660254 1.87398E-05
vn 0.5000001 0.8660254 1.882615E-05
vn -0.3779645 -0.654668 0.6546393
vn -0.3779645 -0.654668 0.6546394
vn 0.7559289 1.428018E-05 -0.6546535
vn 0.755929 1.42775E-05 -0.6546537
vn -1 0 0
vn -1 0 0
vn 0.7559289 -1.427399E-05 0.6546538
vn 0.755929 -1.422026E-05 0.6546536
vn 0.755929 1.42775E-05 -0.6546537
vn 0.7559289 1.427276E-05 -0.6546537
vn -1 0 0
vn -1 0 0
vn 0.755929 -1.422026E-05 0.6546536
vn 0.7559291 -1.418991E-05 0.6546535
vn -0.3779647 0.6546682 -0.6546391
vn -0.3779646 0.654668 -0.6546392
vn 0.5000002 -0.8660253 -1.899887E-05
vn 0.5000002 -0.8660253 -1.899887E-05
vn -0.3779648 0.6546396 0.6546675
vn -0.3779647 0.6546395 0.6546677
vn -0.3779646 0.654668 -0.6546392
vn -0.3779646 0.6546679 -0.6546394
vn 0.5000002 -0.8660253 -1.899887E-05
vn 0.5000002 -0.8660253 -1.899887E-05
vn -0.3779647 0.6546395 0.6546677
vn -0.3779646 0.6546395 0.6546677
vn -1 0 0
vn -1 0 0
vn -1 0 0
vn -1 0 0
vn 1 0 0
vn 1 0 0
vn 1 0 0
vn 1 0 0
vn 0.7063759 0 -0.7078369
vn 0.7063759 0 -0.7078369
vn 0.7063759 0 -0.7078369
vn 0.7063759 0 -0.7078369
vn 0.2460358 0 -0.9692607
vn 0.2460358 0 -0.9692607
vn 0.2460358 0 -0.9692607
vn 0.2460358 0 -0.9692607
vn 0 1 0
vn 0 1 0
vn 0 1 0
vn 0 1 0
vn 0 1 0
vn 0 1 0
vn 0 1 0
vn 0 1 0
vn 0 -1 0
vn 0 -1 0
vn 0 -1 0
vn 0 -1 0
vn 0 -1 0
vn 0 -1 0
vn 0 -1 0
vn 0 -1 0
vn -0.7063759 0 0.7078369
vn -0.7063759 0 0.7078369
vn -0.7063759 0 0.7078369
vn -0.7063759 0 0.7078369
vn -0.2460358 0 0.9692607
vn -0.2460358 0 0.9692607
vn -0.2460358 0 0.9692607
vn -0.2460358 0 0.9692607

vt 0.5 0
vt 0 0
vt 0.5 0.5
vt 0 0.5
vt 0.5 0
vt 0 0
vt 0.5 0.5
vt 0 0.5
vt -5.960464E-08 0
vt -5.960464E-08 0.5
vt 0.6925976 0.5
vt 0.6925976 0
vt 1.646807 0
vt 1.646807 0.5
vt 0.6925976 0.5
vt 0.6925976 0
vt 1.397322 1.374566
vt 1.397322 0.8745662
vt 0.6986611 0.1715357
vt 0.6986611 0.6715357
vt 0 0.5
vt 0 0
vt 0.6986611 0.1715357
vt 0.6986611 0.6715357
vt 1.397322 0
vt 1.397322 0.5
vt 0.6986611 0.1715357
vt 0.6986611 0.6715357
vt 0 0.8745662
vt 0 1.374566
vt 0.6986611 0.1715357
vt 0.6986611 0.6715357
vt 1.646807 0
vt 1.646807 0.5
vt 0.9542094 0
vt 0.9542094 0.5
vt 0 0
vt 0 0.5
vt 0.9542094 0
vt 0.9542094 0.5
vt 0 0
vt 0.5 0
vt 0.25 0.5
vt 0 0
vt 4 0
vt 0 0.5590169
vt 4 0.5590169
vt 0 0
vt 0.5 0
vt 0.25 0.5
vt 0 0
vt 4 0
vt 0 0.559017
vt 4 0.559017
vt 0.5 0
vt 0 0
vt 0.5 4
vt 0 4
vt 1 0
vt 0.5650001 0.2511474
vt -0.5650001 0.2511474
vt -0.5650001 -0.2511474
vt 0.5650001 -0.2511474
vt 1 5.070521E-08
vt -0.5000001 0
vt -0.2825001 0.2511474
vt 0.2825001 0.2511474
vt 0.2825001 -0.2511474
vt -0.2825001 -0.2511474
vt -0.5000001 5.070521E-08
vt 0.8660254 0
vt 0.4893044 0.2511474
vt -0.4893044 0.2511474
vt -0.4893044 -0.2511474
vt 0.4893044 -0.2511474
vt 0.8660254 5.070521E-08
vt -0.8660255 0
vt -0.4893045 0.2511474
vt 0.4893045 0.2511474
vt 0.4893045 -0.2511474
vt -0.4893045 -0.2511474
vt -0.8660255 5.070521E-08
vt 0.5 0
vt 0.2825 0.2511474
vt -0.2825 0.2511474
vt -0.2825 -0.2511474
vt 0.2825 -0.2511474
vt 0.5 5.070521E-08
vt -1 0
vt -0.5650001 0.2511474
vt 0.5650001 0.2511474
vt 0.5650001 -0.2511474
vt -0.5650001 -0.2511474
vt -1 5.070521E-08
vt 1 0
vt 0.5650001 0.2511474
vt -0.5650001 0.2511474
vt -0.5650001 -0.2511474
vt 0.5650001 -0.2511474
vt 1 5.070521E-08
vt -0.5000001 0
vt -0.2825001 0.2511474
vt 0.2825001 0.2511474
vt 0.2825001 -0.2511474
vt -0.2825001 -0.2511474
vt -0.5000001 5.070521E-08
vt 0.8660254 0
vt 0.4893044 0.2511474
vt -0.4893044 0.2511474
vt -0.4893044 -0.2511474
vt 0.4893044 -0.2511474
vt 0.8660254 5.070521E-08
vt -0.8660255 0
vt -0.4893045 0.2511474
vt 0.4893045 0.2511474
vt 0.4893045 -0.2511474
vt -0.4893045 -0.2511474
vt -0.8660255 5.070521E-08
vt 0.5 0
vt 0.2825 0.2511474
vt -0.2825 0.2511474
vt -0.2825 -0.2511474
vt 0.2825 -0.2511474
vt 0.5 5.070521E-08
vt -1 0
vt -0.5650001 0.2511474
vt 0.5650001 0.2511474
vt 0.5650001 -0.2511474
vt -0.5650001 -0.2511474
vt -1 5.070521E-08
vt 0.5 0
vt 0 0
vt 0.5 0.5
vt 0 0.5
vt 0.5 0
vt 0 0
vt 0.5 0.5
vt 0 0.5
vt 5.960464E-08 0
vt 5.960464E-08 0.5
vt 0.9518312 0.5
vt 0.9518312 0
vt 1.64694 0
vt 1.64694 0.5
vt 0.9518312 0.5
vt 0.9518312 0
vt 1.397322 0.5
vt 1.397322 0
vt 0.6986611 0.1773472
vt 0.6986611 0.6773472
vt 0 1.374566
vt 0 0.8745662
vt 0.6986611 0.1773472
vt 0.6986611 0.6773472
vt 1.397322 0.8745662
vt 1.397322 1.374566
vt 0.6986611 0.1773472
vt 0.6986611 0.6773472
vt 0 0
vt 0 0.5
vt 0.6986611 0.1773472
vt 0.6986611 0.6773472
vt 1.646939 0
vt 1.646939 0.5
vt 0.6951083 0
vt 0.6951083 0.5
vt 0 0
vt 0 0.5
vt 0.6951083 0
vt 0.6951083 0.5

g Default_Prototype
usemtl Default_Prototype
usemap Default_Prototype
f 2/2/2 1/1/1 3/3/3
f 4/4/4 2/2/2 3/3/3
f 6/6/6 5/5/5 7/7/7
f 8/8/8 6/6/6 7/7/7
f 10/10/10 9/9/9 12/12/12
f 11/11/11 10/10/10 12/12/12
f 13/13/13 14/14/14 16/16/16
f 14/14/14 15/15/15 16/16/16
f 18/18/18 17/17/17 20/20/20
f 19/19/19 18/18/18 20/20/20
f 21/21/21 22/22/22 24/24/24
f 22/22/22 23/23/23 24/24/24
f 25/25/25 26/26/26 28/28/28
f 27/27/27 25/25/25 28/28/28
f 30/30/30 29/29/29 32/32/32
f 29/29/29 31/31/31 32/32/32
f 33/33/33 34/34/34 36/36/36
f 35/35/35 33/33/33 36/36/36
f 38/38/38 37/37/37 40/40/40
f 37/37/37 39/39/39 40/40/40
f 42/42/42 43/43/43 41/41/41
f 45/45/45 46/46/46 44/44/44
f 47/47/47 46/46/46 45/45/45
f 49/49/49 50/50/50 48/48/48
f 52/52/52 53/53/53 51/51/51
f 54/54/54 53/53/53 52/52/52
f 56/56/56 55/55/55 57/57/57
f 58/58/58 56/56/56 57/57/57
f 65/65/65 59/59/59 60/60/60
f 66/66/66 65/65/65 60/60/60
f 67/67/67 61/61/61 62/62/62
f 68/68/68 67/67/67 62/62/62
f 69/69/69 63/63/63 64/64/64
f 70/70/70 69/69/69 64/64/64
f 77/77/77 71/71/71 72/72/72
f 78/78/78 77/77/77 72/72/72
f 79/79/79 73/73/73 74/74/74
f 80/80/80 79/79/79 74/74/74
f 81/81/81 75/75/75 76/76/76
f 82/82/82 81/81/81 76/76/76
f 89/89/89 83/83/83 84/84/84
f 90/90/90 89/89/89 84/84/84
f 91/91/91 85/85/85 86/86/86
f 92/92/92 91/91/91 86/86/86
f 93/93/93 87/87/87 88/88/88
f 94/94/94 93/93/93 88/88/88
f 101/101/101 95/95/95 96/96/96
f 102/102/102 101/101/101 96/96/96
f 103/103/103 97/97/97 98/98/98
f 104/104/104 103/103/103 98/98/98
f 105/105/105 99/99/99 100/100/100
f 106/106/106 105/105/105 100/100/100
f 113/113/113 107/107/107 108/108/108
f 114/114/114 113/113/113 108/108/108
f 115/115/115 109/109/109 110/110/110
f 116/116/116 115/115/115 110/110/110
f 117/117/117 111/111/111 112/112/112
f 118/118/118 117/117/117 112/112/112
f 125/125/125 119/119/119 120/120/120
f 126/126/126 125/125/125 120/120/120
f 127/127/127 121/121/121 122/122/122
f 128/128/128 127/127/127 122/122/122
f 129/129/129 123/123/123 124/124/124
f 130/130/130 129/129/129 124/124/124
f 132/132/132 131/131/131 133/133/133
f 134/134/134 132/132/132 133/133/133
f 136/136/136 135/135/135 137/137/137
f 138/138/138 136/136/136 137/137/137
f 140/140/140 139/139/139 142/142/142
f 141/141/141 140/140/140 142/142/142
f 143/143/143 144/144/144 146/146/146
f 144/144/144 145/145/145 146/146/146
f 148/148/148 147/147/147 150/150/150
f 149/149/149 148/148/148 150/150/150
f 151/151/151 152/152/152 154/154/154
f 152/152/152 153/153/153 154/154/154
f 155/155/155 156/156/156 158/158/158
f 157/157/157 155/155/155 158/158/158
f 160/160/160 159/159/159 162/162/162
f 159/159/159 161/161/161 162/162/162
f 163/163/163 164/164/164 166/166/166
f 165/165/165 163/163/163 166/166/166
f 168/168/168 167/167/167 170/170/170
f 167/167/167 169/169/169 170/170/170
